<svg width="36" height="36" viewBox="0 0 36 36" fill="none" xmlns="http://www.w3.org/2000/svg">
<path d="M24.1797 2.8927L7.84349 11.2566L1.3501 8.06162L17.3983 0.137248C17.7583 -0.0457493 18.1903 -0.0457493 18.5683 0.137248L24.1797 2.8927Z" fill="white"/>
<path d="M34.6319 8.0626L18.0092 16.2975L11.7843 13.23L10.8843 12.7725L27.2385 4.41016L28.1385 4.86615L34.6319 8.0626Z" fill="white"/>
<path d="M16.6767 18.6709L16.6587 36.0001L0.737988 27.6918C0.287995 27.4548 0 26.9793 0 26.4678V10.436L6.74689 13.76V19.6039C6.74689 20.3524 7.35888 20.9734 8.09687 20.9734C8.83486 20.9734 9.44685 20.3524 9.44685 19.6039V15.1115L10.3468 15.5495L16.6767 18.6709Z" fill="white"/>
<path d="M35.9831 10.4536L19.3784 18.6525L19.3604 35.9817L36.0011 27.2923L35.9831 10.4536Z" fill="white"/>

</svg>
