<svg width="21" height="19" viewBox="0 0 21 19" fill="none" xmlns="http://www.w3.org/2000/svg">
<path d="M19.4503 6.49683H18.19V3.24862C18.19 3.07632 18.1216 2.91108 17.9997 2.78925C17.8779 2.66742 17.7127 2.59898 17.5404 2.59898H1.94893C1.77663 2.59898 1.61139 2.53053 1.48956 2.4087C1.36773 2.28687 1.29929 2.12163 1.29929 1.94933C1.29929 1.77704 1.36773 1.6118 1.48956 1.48997C1.61139 1.36814 1.77663 1.29969 1.94893 1.29969H17.2805C17.4528 1.29969 17.618 1.23125 17.7399 1.10942C17.8617 0.987584 17.9301 0.822345 17.9301 0.650049C17.9301 0.477753 17.8617 0.312514 17.7399 0.190682C17.618 0.0688502 17.4528 0.000405801 17.2805 0.000405801H1.94893C1.6981 -0.00476547 1.4487 0.039532 1.215 0.130768C0.981288 0.222004 0.767845 0.35839 0.586859 0.532136C0.405874 0.705882 0.260893 0.913583 0.160198 1.14337C0.0595026 1.37316 0.0050668 1.62054 0 1.87138V15.5139C0.000850312 15.8668 0.0713074 16.216 0.207336 16.5416C0.343365 16.8673 0.542292 17.1628 0.792727 17.4115C1.04316 17.6601 1.34018 17.8569 1.66678 17.9905C1.99338 18.1242 2.34313 18.1921 2.69602 18.1904H17.5404C17.7127 18.1904 17.8779 18.122 17.9997 18.0001C18.1216 17.8783 18.19 17.7131 18.19 17.5408V14.2925H19.4503C19.5323 14.2988 19.6147 14.2882 19.6925 14.2614C19.7702 14.2346 19.8417 14.1923 19.9025 14.1369C19.9633 14.0816 20.0122 14.0144 20.0462 13.9395C20.0801 13.8646 20.0984 13.7836 20.0999 13.7014V7.20494C20.1021 7.02641 20.0361 6.85378 19.9154 6.72221C19.7947 6.59065 19.6284 6.51005 19.4503 6.49683ZM18.8396 12.9933H13.2657C12.5999 12.9696 11.9708 12.6826 11.5165 12.1953C11.0621 11.7081 10.8197 11.0605 10.8425 10.3947C10.8197 9.72889 11.0621 9.08126 11.5165 8.59404C11.9708 8.10681 12.5999 7.81983 13.2657 7.79612H18.8396V12.9933Z" fill="#4D4D4D"/>
<path d="M12.6693 11.3178C13.2075 11.3178 13.6438 10.8815 13.6438 10.3434C13.6438 9.80518 13.2075 9.3689 12.6693 9.3689C12.1311 9.3689 11.6948 9.80518 11.6948 10.3434C11.6948 10.8815 12.1311 11.3178 12.6693 11.3178Z" fill="#4D4D4D"/>
</svg>
