<svg width="22" height="22" viewBox="0 0 22 22" fill="none" xmlns="http://www.w3.org/2000/svg">
<path d="M21.4211 20.8421H19.6842V5.21053C19.6928 5.0839 19.6587 4.95804 19.5873 4.85309C19.5159 4.74813 19.4114 4.67014 19.2905 4.63158L15.0526 2.86V20.8421H13.8947V0.578947C13.8947 0.425401 13.8337 0.278144 13.7252 0.16957C13.6166 0.0609962 13.4693 0 13.3158 0H2.89474C2.74119 0 2.59393 0.0609962 2.48536 0.16957C2.37679 0.278144 2.31579 0.425401 2.31579 0.578947V20.8421H0.578947C0.425401 20.8421 0.278144 20.9031 0.16957 21.0117C0.0609962 21.1202 0 21.2675 0 21.4211C0 21.5746 0.0609962 21.7219 0.16957 21.8304C0.278144 21.939 0.425401 22 0.578947 22H21.4211C21.5746 22 21.7219 21.939 21.8304 21.8304C21.939 21.7219 22 21.5746 22 21.4211C22 21.2675 21.939 21.1202 21.8304 21.0117C21.7219 20.9031 21.5746 20.8421 21.4211 20.8421ZM16.7895 6.94737H17.9474C18.1009 6.94737 18.2482 7.00836 18.3567 7.11694C18.4653 7.22551 18.5263 7.37277 18.5263 7.52632C18.5234 7.67893 18.4614 7.82448 18.3535 7.93241C18.2455 8.04035 18.1 8.1023 17.9474 8.10526H16.7895C16.6369 8.1023 16.4913 8.04035 16.3834 7.93241C16.2754 7.82448 16.2135 7.67893 16.2105 7.52632C16.2105 7.37277 16.2715 7.22551 16.3801 7.11694C16.4887 7.00836 16.6359 6.94737 16.7895 6.94737ZM16.7895 10.4211H17.9474C18.1009 10.4211 18.2482 10.482 18.3567 10.5906C18.4653 10.6992 18.5263 10.8465 18.5263 11C18.5263 11.1535 18.4653 11.3008 18.3567 11.4094C18.2482 11.518 18.1009 11.5789 17.9474 11.5789H16.7895C16.6359 11.5789 16.4887 11.518 16.3801 11.4094C16.2715 11.3008 16.2105 11.1535 16.2105 11C16.2105 10.8465 16.2715 10.6992 16.3801 10.5906C16.4887 10.482 16.6359 10.4211 16.7895 10.4211ZM16.7895 13.8947H17.9474C18.1 13.8977 18.2455 13.9596 18.3535 14.0676C18.4614 14.1755 18.5234 14.3211 18.5263 14.4737C18.5263 14.6272 18.4653 14.7745 18.3567 14.8831C18.2482 14.9916 18.1009 15.0526 17.9474 15.0526H16.7895C16.6359 15.0526 16.4887 14.9916 16.3801 14.8831C16.2715 14.7745 16.2105 14.6272 16.2105 14.4737C16.2135 14.3211 16.2754 14.1755 16.3834 14.0676C16.4913 13.9596 16.6369 13.8977 16.7895 13.8947ZM16.7895 17.3684H17.9474C18.1009 17.3684 18.2482 17.4294 18.3567 17.538C18.4653 17.6466 18.5263 17.7938 18.5263 17.9474C18.5263 18.1009 18.4653 18.2482 18.3567 18.3567C18.2482 18.4653 18.1009 18.5263 17.9474 18.5263H16.7895C16.6359 18.5263 16.4887 18.4653 16.3801 18.3567C16.2715 18.2482 16.2105 18.1009 16.2105 17.9474C16.2105 17.7938 16.2715 17.6466 16.3801 17.538C16.4887 17.4294 16.6359 17.3684 16.7895 17.3684ZM9.26316 3.47368H10.4211C10.5746 3.47368 10.7219 3.53468 10.8304 3.64325C10.939 3.75183 11 3.89909 11 4.05263C11 4.20618 10.939 4.35344 10.8304 4.46201C10.7219 4.57058 10.5746 4.63158 10.4211 4.63158H9.26316C9.10961 4.63158 8.96235 4.57058 8.85378 4.46201C8.74521 4.35344 8.68421 4.20618 8.68421 4.05263C8.68421 3.89909 8.74521 3.75183 8.85378 3.64325C8.96235 3.53468 9.10961 3.47368 9.26316 3.47368ZM9.26316 6.94737H10.4211C10.5746 6.94737 10.7219 7.00836 10.8304 7.11694C10.939 7.22551 11 7.37277 11 7.52632C11 7.67986 10.939 7.82712 10.8304 7.93569C10.7219 8.04427 10.5746 8.10526 10.4211 8.10526H9.26316C9.10961 8.10526 8.96235 8.04427 8.85378 7.93569C8.74521 7.82712 8.68421 7.67986 8.68421 7.52632C8.68421 7.37277 8.74521 7.22551 8.85378 7.11694C8.96235 7.00836 9.10961 6.94737 9.26316 6.94737ZM9.26316 10.4211H10.4211C10.5746 10.4211 10.7219 10.482 10.8304 10.5906C10.939 10.6992 11 10.8465 11 11C11 11.1535 10.939 11.3008 10.8304 11.4094C10.7219 11.518 10.5746 11.5789 10.4211 11.5789H9.26316C9.10961 11.5789 8.96235 11.518 8.85378 11.4094C8.74521 11.3008 8.68421 11.1535 8.68421 11C8.68421 10.8465 8.74521 10.6992 8.85378 10.5906C8.96235 10.482 9.10961 10.4211 9.26316 10.4211ZM9.26316 13.8947H10.4211C10.5746 13.8947 10.7219 13.9557 10.8304 14.0643C10.939 14.1729 11 14.3201 11 14.4737C11 14.6272 10.939 14.7745 10.8304 14.8831C10.7219 14.9916 10.5746 15.0526 10.4211 15.0526H9.26316C9.10961 15.0526 8.96235 14.9916 8.85378 14.8831C8.74521 14.7745 8.68421 14.6272 8.68421 14.4737C8.68421 14.3201 8.74521 14.1729 8.85378 14.0643C8.96235 13.9557 9.10961 13.8947 9.26316 13.8947ZM5.72 3.47368H6.94737C7.10091 3.47368 7.24817 3.53468 7.35675 3.64325C7.46532 3.75183 7.52632 3.89909 7.52632 4.05263C7.52632 4.20618 7.46532 4.35344 7.35675 4.46201C7.24817 4.57058 7.10091 4.63158 6.94737 4.63158H5.78947C5.63593 4.63158 5.48867 4.57058 5.3801 4.46201C5.27152 4.35344 5.21053 4.20618 5.21053 4.05263C5.21053 3.89909 5.27152 3.75183 5.3801 3.64325C5.48867 3.53468 5.63593 3.47368 5.78947 3.47368H5.72ZM5.72 6.94737H6.94737C7.10091 6.94737 7.24817 7.00836 7.35675 7.11694C7.46532 7.22551 7.52632 7.37277 7.52632 7.52632C7.52632 7.67986 7.46532 7.82712 7.35675 7.93569C7.24817 8.04427 7.10091 8.10526 6.94737 8.10526H5.78947C5.63593 8.10526 5.48867 8.04427 5.3801 7.93569C5.27152 7.82712 5.21053 7.67986 5.21053 7.52632C5.21053 7.37277 5.27152 7.22551 5.3801 7.11694C5.48867 7.00836 5.63593 6.94737 5.78947 6.94737H5.72ZM5.72 10.4211H6.94737C7.10091 10.4211 7.24817 10.482 7.35675 10.5906C7.46532 10.6992 7.52632 10.8465 7.52632 11C7.52632 11.1535 7.46532 11.3008 7.35675 11.4094C7.24817 11.518 7.10091 11.5789 6.94737 11.5789H5.78947C5.63593 11.5789 5.48867 11.518 5.3801 11.4094C5.27152 11.3008 5.21053 11.1535 5.21053 11C5.21053 10.8465 5.27152 10.6992 5.3801 10.5906C5.48867 10.482 5.63593 10.4211 5.78947 10.4211H5.72ZM5.72 13.8947H6.94737C7.10091 13.8947 7.24817 13.9557 7.35675 14.0643C7.46532 14.1729 7.52632 14.3201 7.52632 14.4737C7.52632 14.6272 7.46532 14.7745 7.35675 14.8831C7.24817 14.9916 7.10091 15.0526 6.94737 15.0526H5.78947C5.63593 15.0526 5.48867 14.9916 5.3801 14.8831C5.27152 14.7745 5.21053 14.6272 5.21053 14.4737C5.21053 14.3201 5.27152 14.1729 5.3801 14.0643C5.48867 13.9557 5.63593 13.8947 5.78947 13.8947H5.72ZM8.68421 20.8421V18.5263H7.52632V20.8421H6.36842V17.9126C6.37728 17.7652 6.44217 17.6267 6.5498 17.5255C6.65743 17.4244 6.79965 17.3682 6.94737 17.3684H9.26316C9.4167 17.3684 9.56396 17.4294 9.67254 17.538C9.78111 17.6466 9.8421 17.7938 9.8421 17.9474V20.8421H8.68421Z" fill="#4D4D4D"/>
</svg>
