<svg width="20" height="20" viewBox="0 0 20 20" fill="none" xmlns="http://www.w3.org/2000/svg">
<g clip-path="url(#clip0_1_4183)">
<path d="M9.41406 15.5854H6.75781V16.7573H9.41406V15.5854Z" fill="#4D4D4D"/>
<path d="M5.58594 15.5854H2.92969V16.7573H5.58594V15.5854Z" fill="#4D4D4D"/>
<path d="M13.2422 15.5854H10.5859V16.7573H13.2422V15.5854Z" fill="#4D4D4D"/>
<path d="M18.2422 5.66357H15.819C15.751 6.266 15.5899 6.85971 15.3358 7.42139H18.2422V17.9292H1.75781V7.42139H4.66418C4.41012 6.85971 4.24902 6.266 4.18098 5.66357H1.75781C0.791016 5.66357 0 6.45459 0 7.42139V17.9292C0 18.896 0.791016 19.687 1.75781 19.687H18.2422C19.209 19.687 20 18.896 20 17.9292V7.42139C20 6.45459 19.209 5.66357 18.2422 5.66357Z" fill="#4D4D4D"/>
<path d="M17.0703 15.5854H14.4141V16.7573H17.0703V15.5854Z" fill="#4D4D4D"/>
<path d="M10 13.2871L5.8568 9.14385C5.68133 8.96838 5.51941 8.78436 5.3709 8.59326H2.92969V14.4136H17.0703V8.59326H14.6291C14.4806 8.78436 14.3187 8.96838 14.1432 9.14385L10 13.2871Z" fill="#4D4D4D"/>
<path d="M13.3143 8.31506C15.142 6.4874 15.142 3.51361 13.3143 1.68592C12.429 0.800566 11.2518 0.312988 9.99977 0.312988C8.74769 0.312988 7.57055 0.800566 6.6852 1.68592C4.85754 3.51361 4.85754 6.4874 6.6852 8.31506L9.99977 11.6296L13.3143 8.31506ZM6.48414 5.00049C6.48414 3.06197 8.06125 1.48486 9.99977 1.48486C11.9383 1.48486 13.5154 3.06197 13.5154 5.00049C13.5154 6.939 11.9383 8.51611 9.99977 8.51611C8.06125 8.51611 6.48414 6.939 6.48414 5.00049Z" fill="#4D4D4D"/>
<path d="M10 7.34424C11.2944 7.34424 12.3438 6.29491 12.3438 5.00049C12.3438 3.70607 11.2944 2.65674 10 2.65674C8.70558 2.65674 7.65625 3.70607 7.65625 5.00049C7.65625 6.29491 8.70558 7.34424 10 7.34424Z" fill="#4D4D4D"/>
</g>
<defs>
<clipPath id="clip0_1_4183">
<rect width="20" height="20" fill="white"/>
</clipPath>
</defs>
</svg>
