<svg width="21" height="21" viewBox="0 0 21 21" fill="none" xmlns="http://www.w3.org/2000/svg">
<g clip-path="url(#clip0_1_4170)">
<path d="M18.6811 20.2225L17.0175 14.1362C16.9801 13.9994 16.8966 13.8796 16.781 13.7973C14.144 11.9194 15.0084 12.535 12.7542 10.9297C13.6099 10.0504 14.1031 8.86167 14.1031 7.61734C14.1031 5.13671 14.1196 5.00095 14.0469 4.54839C14.02 1.95161 12.0519 0 9.44722 0H9.25592C6.65131 0 4.68317 1.95161 4.65631 4.54843C4.58359 5.00099 4.60008 5.13663 4.60008 7.61738C4.60008 8.86163 5.09333 10.0503 5.94904 10.9297C3.09632 12.9611 4.76319 11.7741 1.92221 13.7973C1.80662 13.8796 1.72303 13.9994 1.68563 14.1363L0.022075 20.2226C-0.0848527 20.6138 0.210173 21 0.61553 21H8.73638V14.4983L9.35161 14.0941L9.96685 14.4983V21H18.0877C18.4933 21 18.788 20.6135 18.6811 20.2225ZM8.94982 1.99344H9.75336C10.0931 1.99344 10.3686 2.2689 10.3686 2.60868C10.3686 2.94845 10.0931 3.22391 9.75336 3.22391H8.94982C8.61005 3.22391 8.33459 2.94845 8.33459 2.60868C8.33459 2.2689 8.61005 1.99344 8.94982 1.99344ZM8.73642 13.026L7.38311 13.9152L5.57789 12.7046L6.9602 11.7202C7.52523 12.0498 8.13554 12.2469 8.73642 12.3243V13.026ZM9.35161 11.1333C7.39742 11.1333 5.83054 9.54733 5.83054 7.61738C5.8305 7.17679 5.83001 6.81216 5.8296 6.50684L6.16035 6.98972C6.27503 7.15719 6.46493 7.25726 6.66792 7.25726H12.0353C12.2382 7.25726 12.4281 7.15719 12.5428 6.98972L12.8736 6.50684C12.8732 6.81212 12.8727 7.17679 12.8727 7.61738C12.8727 9.53006 11.3232 11.1333 9.35161 11.1333ZM9.9668 13.026V12.3243C10.5997 12.2429 11.2051 12.0339 11.743 11.7202L13.1253 12.7045L11.3201 13.9152L9.9668 13.026ZM14.5781 18.3788H12.4208C12.081 18.3788 11.8055 18.1034 11.8055 17.7636C11.8055 17.4238 12.081 17.1483 12.4208 17.1483H14.5781C14.9179 17.1483 15.1933 17.4238 15.1933 17.7636C15.1933 18.1034 14.9179 18.3788 14.5781 18.3788Z" fill="#4D4D4D"/>
</g>
<defs>
<clipPath id="clip0_1_4170">
<rect width="21" height="21" fill="white"/>
</clipPath>
</defs>
</svg>
