<svg width="20" height="20" viewBox="0 0 20 20" fill="none" xmlns="http://www.w3.org/2000/svg">
<path d="M13.4337 1.60707L4.35795 6.25369L0.750488 4.4787L9.66623 0.0762492C9.86623 -0.0254164 10.1062 -0.0254164 10.3162 0.0762492L13.4337 1.60707Z" fill="#4D4D4D"/>
<path d="M19.2396 4.47934L10.0047 9.05429L6.54638 7.35014L6.04639 7.09598L15.1321 2.4502L15.6321 2.70353L19.2396 4.47934Z" fill="#4D4D4D"/>
<path d="M9.2649 10.3728L9.2549 20.0002L0.409996 15.3844C0.159998 15.2528 0 14.9886 0 14.7044V5.79785L3.7483 7.6445V10.8911C3.7483 11.307 4.08829 11.652 4.49829 11.652C4.90828 11.652 5.24828 11.307 5.24828 10.8911V8.39533L5.74827 8.63866L9.2649 10.3728Z" fill="#4D4D4D"/>
<path d="M19.99 5.80713L10.7651 10.3621L10.7551 19.9895L20 15.162L19.99 5.80713Z" fill="#4D4D4D"/>
</svg>
