<svg width="33" height="36" viewBox="0 0 33 36" fill="none" xmlns="http://www.w3.org/2000/svg">
<path d="M32.0247 34.6672L29.1729 24.2336C29.1088 23.9989 28.9655 23.7936 28.7674 23.6525C24.2469 20.4332 25.7288 21.4885 21.8643 18.7366C23.3312 17.2292 24.1768 15.1914 24.1768 13.0583C24.1768 8.8058 24.205 8.57306 24.0804 7.79723C24.0343 3.34561 20.6604 0 16.1952 0H15.8673C11.4022 0 8.0283 3.34561 7.98224 7.7973C7.85758 8.57313 7.88584 8.80566 7.88584 13.0584C7.88584 15.1914 8.73142 17.2292 10.1984 18.7367C5.30798 22.2191 8.16548 20.1842 3.29521 23.6526C3.09707 23.7937 2.95377 23.999 2.88965 24.2336L0.0378429 34.6673C-0.145462 35.338 0.360296 36 1.05519 36H14.9766V24.8543L16.0313 24.1613L17.086 24.8543V36H31.0075C31.7027 36 32.2079 35.3374 32.0247 34.6672ZM15.3426 3.41733H16.72C17.3025 3.41733 17.7747 3.88955 17.7747 4.47202C17.7747 5.05448 17.3025 5.5267 16.72 5.5267H15.3426C14.7601 5.5267 14.2879 5.05448 14.2879 4.47202C14.2879 3.88955 14.7601 3.41733 15.3426 3.41733ZM14.9767 22.3303L12.6568 23.8546L9.56209 21.7793L11.9318 20.0918C12.9004 20.6568 13.9466 20.9947 14.9767 21.1274V22.3303ZM16.0313 19.0856C12.6813 19.0856 9.99522 16.3669 9.99522 13.0584C9.99515 12.3031 9.9943 11.678 9.9936 11.1546L10.5606 11.9824C10.7572 12.2695 11.0827 12.441 11.4307 12.441H20.6319C20.9798 12.441 21.3053 12.2695 21.502 11.9824L22.069 11.1546C22.0683 11.6779 22.0675 12.3031 22.0675 13.0584C22.0675 16.3372 19.4112 19.0856 16.0313 19.0856ZM17.086 22.3303V21.1273C18.1709 20.9878 19.2088 20.6296 20.1308 20.0917L22.5005 21.7792L19.4058 23.8546L17.086 22.3303ZM24.991 31.5065H21.2927C20.7103 31.5065 20.2381 31.0343 20.2381 30.4519C20.2381 29.8694 20.7103 29.3972 21.2927 29.3972H24.991C25.5735 29.3972 26.0457 29.8694 26.0457 30.4519C26.0457 31.0343 25.5735 31.5065 24.991 31.5065Z" fill="white"/>
</svg>
