<svg width="36" height="27" viewBox="0 0 36 27" fill="none" xmlns="http://www.w3.org/2000/svg">
<path d="M31.0909 6.54545H26.1818V0H3.27273C1.45636 0 0 1.45636 0 3.27273V21.2727H3.27273C3.27273 23.9891 5.46545 26.1818 8.18182 26.1818C10.8982 26.1818 13.0909 23.9891 13.0909 21.2727H22.9091C22.9091 23.9891 25.1018 26.1818 27.8182 26.1818C30.5345 26.1818 32.7273 23.9891 32.7273 21.2727H36V13.0909L31.0909 6.54545ZM8.18182 23.7273C6.82364 23.7273 5.72727 22.6309 5.72727 21.2727C5.72727 19.9145 6.82364 18.8182 8.18182 18.8182C9.54 18.8182 10.6364 19.9145 10.6364 21.2727C10.6364 22.6309 9.54 23.7273 8.18182 23.7273ZM19.6364 11.4545H6.54545V8.18182H19.6364V11.4545ZM27.8182 23.7273C26.46 23.7273 25.3636 22.6309 25.3636 21.2727C25.3636 19.9145 26.46 18.8182 27.8182 18.8182C29.1764 18.8182 30.2727 19.9145 30.2727 21.2727C30.2727 22.6309 29.1764 23.7273 27.8182 23.7273ZM26.1818 13.0909V9H30.2727L33.48 13.0909H26.1818Z" fill="white"/>
</svg>
